<svg width="73" height="72" viewBox="0 0 73 72" fill="none" xmlns="http://www.w3.org/2000/svg">
  <path d="M41.846 53.3541C53.1167 53.3541 62.2535 44.2173 62.2535 32.9466C62.2535 21.6758 53.1167 12.5391 41.846 12.5391C30.5752 12.5391 21.4385 21.6758 21.4385 32.9466C21.4385 44.2173 30.5752 53.3541 41.846 53.3541Z" fill="#75C1EE"/>
  <path d="M31.6422 15.2745C21.88 20.9108 18.5359 33.3898 24.1722 43.152C26.5628 47.2948 30.1909 50.2761 34.3169 51.9101C37.8184 51.7583 41.3341 50.7908 44.5769 48.9176C55.3488 42.6992 59.0388 28.9264 52.8203 18.1545C51.985 16.7061 51.0091 15.3926 49.9263 14.2058C44.2113 11.7476 37.4472 11.922 31.6422 15.2745Z" fill="#96CEEE"/>
  <path d="M43.8486 15.4221C43.2579 14.3955 42.5942 13.4364 41.877 12.5421C38.4007 12.5336 34.8739 13.4111 31.6451 15.273C21.8829 20.9092 18.5389 33.3883 24.1751 43.1505C25.4436 45.347 27.0607 47.2146 28.9142 48.7333C31.2092 48.258 33.4676 47.4199 35.6079 46.1852C46.3798 39.9667 50.0698 26.1939 43.8514 15.4221H43.8486Z" fill="#C2E0F1"/>
  <path d="M21.447 32.3873C21.6495 32.2777 21.8548 32.1736 22.0545 32.0555C28.6836 28.2277 32.6239 21.5395 33.2314 14.4492C32.6942 14.6995 32.1655 14.9695 31.6423 15.2705C25.2748 18.9464 21.6383 25.5389 21.447 32.3873Z" fill="#D9E9F3"/>
  <path d="M40.333 43.5096L35.4674 46.3193C34.064 47.1293 32.2696 46.6484 31.4596 45.2449C30.6496 43.8415 31.1305 42.0471 32.534 41.2371L33.7996 40.5059C35.203 39.6959 35.684 37.9015 34.874 36.498C34.064 35.0946 32.2696 34.6137 30.8662 35.4237L22.7437 40.1121C23.1318 41.1443 23.6071 42.1624 24.1752 43.1496C26.9512 47.9562 31.3893 51.2046 36.3421 52.5912L43.2693 48.5918C44.6727 47.7818 45.1537 45.9874 44.3437 44.584C43.5337 43.1805 41.7393 42.6996 40.3358 43.5096H40.333Z" fill="#7CC462"/>
  <path d="M34.9021 46.5696C33.614 46.9887 32.1627 46.4655 31.4596 45.2449C30.6496 43.8415 31.1305 42.0471 32.534 41.2371L33.7996 40.5059C35.203 39.6959 35.684 37.9015 34.874 36.498C34.064 35.0946 32.2696 34.6137 30.8662 35.4237L22.7437 40.1121C22.8252 40.3259 22.9124 40.5396 22.9996 40.7534C23.0305 40.8321 23.0643 40.908 23.098 40.9868C23.174 41.1668 23.2555 41.344 23.3371 41.524C23.399 41.659 23.4665 41.794 23.5312 41.929C23.5958 42.0612 23.6605 42.1934 23.728 42.3255C23.8715 42.6012 24.0205 42.8768 24.1752 43.1496C24.3412 43.4365 24.5127 43.7177 24.6927 43.9934C24.7602 44.0974 24.8305 44.1959 24.898 44.2999C25.0105 44.4687 25.123 44.6374 25.2383 44.8005C25.3283 44.9271 25.4212 45.048 25.514 45.1718C25.6124 45.304 25.7108 45.4362 25.8121 45.5655C25.919 45.7005 26.0287 45.8355 26.1383 45.9677C26.2283 46.0774 26.3212 46.1871 26.414 46.2968C26.5349 46.4374 26.6587 46.5752 26.7852 46.713C26.8696 46.8059 26.9568 46.8987 27.044 46.9915C27.179 47.1321 27.314 47.2727 27.4518 47.4105C27.5333 47.4921 27.6149 47.5709 27.6965 47.6496C27.8427 47.7902 27.989 47.928 28.138 48.063C28.2168 48.1362 28.2983 48.2065 28.3771 48.2768C28.5318 48.4118 28.6837 48.544 28.8412 48.6762C28.8665 48.6959 28.889 48.7155 28.9143 48.7352C30.959 48.3105 32.9727 47.599 34.9021 46.5724V46.5696Z" fill="#9CD586"/>
  <path d="M59.5198 22.742C56.5329 17.567 51.6223 14.1976 46.2139 13.0107L32.2217 21.0882C30.8182 21.8982 30.3373 23.6926 31.1473 25.0961C31.9573 26.4995 33.7517 26.9804 35.1551 26.1704L46.0986 19.8536C47.502 19.0436 49.2964 19.5245 50.1064 20.9279C50.9079 22.3173 50.4439 24.0892 49.0714 24.9104L45.4179 27.0198C44.0145 27.8298 43.5335 29.6242 44.3435 31.0276C45.1535 32.4311 46.9479 32.912 48.3514 32.102L48.987 31.7364C50.3848 30.9601 52.1511 31.4439 52.9526 32.8332C53.7626 34.2367 53.2817 36.0311 51.8782 36.8411L51.4817 37.0717C50.0782 37.8817 49.5973 39.6761 50.4073 41.0795C51.2173 42.4829 53.0117 42.9639 54.4151 42.1539L61.6123 37.9998C62.8864 33.0161 62.2929 27.5486 59.517 22.742H59.5198Z" fill="#56A638"/>
  <path d="M52.8232 18.152C51.9907 16.7064 51.0148 15.3957 49.9348 14.2117C49.707 14.1132 49.4792 14.0176 49.2486 13.9276C49.2064 13.9107 49.1642 13.8939 49.122 13.8798C48.8295 13.7673 48.5342 13.6632 48.236 13.5648C48.2135 13.5564 48.1939 13.5507 48.1714 13.5451C47.862 13.4439 47.5526 13.3511 47.2404 13.2667C47.232 13.2667 47.2236 13.2611 47.2151 13.2582C46.9057 13.1739 46.5935 13.0979 46.2814 13.0276C46.2589 13.022 46.2364 13.0164 46.211 13.0107L32.2217 21.0882C30.8182 21.8982 30.3373 23.6926 31.1473 25.0961C31.9573 26.4995 33.7517 26.9804 35.1551 26.1704L46.0986 19.8536C47.502 19.0436 49.2964 19.5245 50.1064 20.9279C50.9079 22.3173 50.4439 24.0892 49.0714 24.9104L45.4179 27.0198C44.0145 27.8298 43.5335 29.6242 44.3435 31.0276C45.1535 32.4311 46.9479 32.912 48.3514 32.102L48.987 31.7364C50.3848 30.9601 52.1511 31.4439 52.9526 32.8332C53.7626 34.2367 53.2817 36.0311 51.8782 36.8411L51.4817 37.0717C50.0782 37.8817 49.5973 39.6761 50.4073 41.0795C50.7335 41.6476 51.2257 42.0611 51.7826 42.3029C56.6229 35.3589 57.3317 25.9679 52.8204 18.152H52.8232Z" fill="#7CC462"/>
  <path d="M44.3465 31.0307C44.7515 31.7311 45.4012 32.2036 46.124 32.3976C46.6528 30.3811 46.9031 28.2914 46.8609 26.1904L45.4209 27.0229C44.0175 27.8329 43.5365 29.6273 44.3465 31.0307Z" fill="#9CD586"/>
  <path d="M43.8487 15.4209C43.6968 15.1593 43.5421 14.9006 43.3818 14.6475L32.2246 21.0909C30.8212 21.9009 30.3402 23.6953 31.1502 25.0987C31.9602 26.5021 33.7546 26.9831 35.158 26.1731L45.8512 19.9996C45.3646 18.4359 44.7037 16.9003 43.8487 15.4209Z" fill="#9CD586"/>
  <path d="M41.8826 53.9113C34.6292 53.9113 27.567 50.151 23.6858 43.4291C20.8845 38.5776 20.142 32.9273 21.5905 27.516C23.0417 22.1048 26.5095 17.5823 31.3611 14.7838C41.3736 9.00415 54.2267 12.4466 60.0064 22.4591C65.7889 32.4745 62.3436 45.3248 52.3311 51.1045C49.0376 53.0057 45.4376 53.9085 41.8798 53.9085L41.8826 53.9113ZM41.8151 13.1048C38.4514 13.1048 35.0426 13.9598 31.9264 15.7598C27.3364 18.4091 24.0514 22.6898 22.6789 27.8085C21.3064 32.9273 22.0095 38.2766 24.6617 42.8666C30.132 52.342 42.2933 55.6017 51.7714 50.1313C61.2495 44.661 64.5064 32.4998 59.0361 23.0216C55.3658 16.6626 48.6805 13.102 41.8151 13.102V13.1048Z" fill="#575756"/>
  <path d="M36.342 53.1539C36.2914 53.1539 36.2407 53.1483 36.1901 53.1342C30.8801 51.6464 26.442 48.2011 23.6886 43.4311C23.1204 42.4495 22.6254 41.3977 22.2176 40.312C22.122 40.0533 22.2232 39.7636 22.4623 39.6258L30.5848 34.9374C31.3948 34.4705 32.337 34.3467 33.2398 34.5886C34.1426 34.8305 34.8964 35.4099 35.3632 36.217C36.3279 37.8877 35.7542 40.0308 34.0836 40.9955L32.8179 41.7267C32.2695 42.0445 31.8757 42.5564 31.7126 43.1667C31.5495 43.7799 31.6339 44.4183 31.9489 44.9667C32.2667 45.5152 32.7757 45.9089 33.3889 46.072C34.002 46.2352 34.6404 46.1508 35.1889 45.8358L40.0545 43.0261C40.8645 42.5592 41.8067 42.4355 42.7095 42.6774C43.6123 42.9192 44.3661 43.4986 44.8329 44.3058C45.2998 45.1158 45.4236 46.058 45.1817 46.9608C44.9398 47.8636 44.3604 48.6174 43.5532 49.0842L36.6261 53.0836C36.5389 53.1342 36.4432 53.1595 36.3448 53.1595L36.342 53.1539ZM23.4411 40.357C23.7926 41.2289 24.2032 42.0727 24.6617 42.8658C27.2267 47.3124 31.3442 50.5411 36.2661 51.9839L42.9851 48.1055C43.5336 47.7877 43.9273 47.2786 44.0904 46.6655C44.2536 46.0524 44.1692 45.4139 43.8542 44.8655C43.5364 44.317 43.0273 43.9233 42.4142 43.7602C41.8011 43.597 41.1626 43.6814 40.6142 43.9964L35.7486 46.8061C34.9386 47.273 33.9964 47.3967 33.0936 47.1549C32.1907 46.913 31.437 46.3336 30.9701 45.5264C30.5032 44.7164 30.3795 43.7742 30.6214 42.8742C30.8632 41.9742 31.4426 41.2177 32.2498 40.7508L33.5154 40.0195C34.6489 39.3642 35.037 37.913 34.3845 36.7795C34.0667 36.2311 33.5576 35.8374 32.9445 35.6742C32.3314 35.5111 31.6929 35.5955 31.1445 35.9105L23.4411 40.357Z" fill="#575756"/>
  <path d="M52.9553 43.1124C52.6516 43.1124 52.345 43.0731 52.0441 42.9915C51.1413 42.7496 50.3875 42.1703 49.9206 41.3631C48.956 39.6924 49.5297 37.5493 51.2003 36.5846L51.5969 36.354C52.1453 36.0362 52.5391 35.5243 52.7022 34.914C52.8653 34.3009 52.781 33.6624 52.466 33.114C51.8219 32.0003 50.3847 31.6037 49.2597 32.2281L48.6325 32.5909C46.9619 33.5556 44.8188 32.9818 43.8541 31.3112C42.8894 29.6406 43.466 27.4974 45.1338 26.5328L48.7872 24.4234C49.8841 23.7681 50.2581 22.3224 49.6141 21.2087C48.9588 20.0753 47.5075 19.6871 46.3741 20.3396L35.4306 26.6565C34.6206 27.1234 33.6813 27.2471 32.7756 27.0053C31.8728 26.7634 31.1191 26.184 30.6522 25.3768C30.1853 24.5668 30.0616 23.6246 30.3035 22.7246C30.5453 21.8218 31.1247 21.0681 31.9319 20.6012L45.9241 12.5237C46.045 12.4534 46.1913 12.4309 46.3263 12.4618C52.075 13.7218 57.0588 17.3668 60.0006 22.4603C62.7541 27.2303 63.5191 32.799 62.1522 38.1399C62.1156 38.2862 62.02 38.4128 61.8878 38.4887L54.6906 42.6428C54.1506 42.9549 53.5544 43.1124 52.9469 43.1124H52.9553ZM50.4044 30.8106C51.6194 30.8106 52.8006 31.4378 53.4419 32.5515C53.9088 33.3615 54.0325 34.3037 53.7906 35.2065C53.5488 36.1093 52.9694 36.8631 52.1622 37.3299L51.7656 37.5606C51.2172 37.8784 50.8235 38.3874 50.6603 39.0006C50.4972 39.6137 50.5816 40.2521 50.8966 40.8006C51.2144 41.349 51.7263 41.7428 52.3366 41.9059C52.9497 42.069 53.5881 41.9846 54.1366 41.6696L61.1256 37.6337C62.3406 32.6499 61.5981 27.4693 59.0331 23.0256C56.2853 18.2696 51.656 14.8468 46.3038 13.6121L32.5028 21.5799C31.9544 21.8978 31.5606 22.4068 31.3975 23.0199C31.2344 23.6331 31.3188 24.2715 31.6338 24.8199C31.9516 25.3684 32.4606 25.7621 33.0738 25.9253C33.6869 26.0884 34.3253 26.004 34.8738 25.689L45.8172 19.3721C47.4878 18.4074 49.631 18.9812 50.5956 20.6518C51.5434 22.2943 50.9922 24.4234 49.3638 25.3993L45.7019 27.5143C44.5685 28.1696 44.1803 29.6209 44.8328 30.7543C45.4881 31.8878 46.9394 32.2759 48.0728 31.6234L48.7085 31.2578C49.2456 30.9596 49.8278 30.819 50.4044 30.819V30.8106Z" fill="#575756"/>
  <path d="M32.5818 17.4762C32.3877 17.4762 32.1993 17.3749 32.0952 17.1949L28.6386 11.2099C28.4839 10.9399 28.5768 10.5968 28.8439 10.4421C29.1139 10.2874 29.4571 10.3802 29.6118 10.6474L33.0683 16.6324C33.223 16.9024 33.1302 17.2455 32.863 17.4002C32.773 17.4509 32.6774 17.4762 32.5818 17.4762Z" fill="#575756"/>
  <path d="M54.3814 55.2328C54.1874 55.2328 53.9989 55.1316 53.8949 54.9516L51.5605 50.9072C51.4058 50.6372 51.4986 50.2941 51.7658 50.1394C52.0358 49.9847 52.3789 50.0775 52.5336 50.3447L54.868 54.3891C55.0227 54.6591 54.9299 55.0022 54.6627 55.1569C54.5727 55.2075 54.4771 55.2328 54.3814 55.2328Z" fill="#575756"/>
  <path d="M54.1986 28.3549L54.2267 28.338C54.8483 27.9386 55.3517 27.3818 55.6864 26.7236L55.9142 27.0246C56.2461 27.4605 56.6624 27.8289 57.1377 28.1046L57.3177 28.2086L57.1433 28.3324C56.6427 28.6839 56.2264 29.1424 55.9255 29.6768L55.8299 29.8427L55.8242 29.8343C55.4558 29.2549 54.9496 28.7768 54.3505 28.4421L54.1958 28.3549H54.1986Z" fill="white"/>
  <path d="M25.9978 30.6402C26.7387 30.6402 27.3394 30.0395 27.3394 29.2986C27.3394 28.5577 26.7387 27.957 25.9978 27.957C25.2569 27.957 24.6562 28.5577 24.6562 29.2986C24.6562 30.0395 25.2569 30.6402 25.9978 30.6402Z" fill="white"/>
  <path d="M25.2865 61.7562C19.6024 63.244 13.7356 59.6384 12.1831 53.7069C10.6306 47.7725 13.9774 41.7565 19.6615 40.2687L21.3884 39.8159L27.0134 61.3034L25.2865 61.7562Z" fill="#EE4D4D"/>
  <path d="M21.3913 39.8159L19.6644 40.2687C13.9804 41.7565 10.6307 47.7725 12.186 53.7069C12.5122 54.9556 12.1269 54.4269 12.7963 55.445L21.7232 41.0787L21.3941 39.8187L21.3913 39.8159Z" fill="#F4B2B2"/>
  <path d="M22.7016 62.6483C17.6756 62.6483 13.0209 59.1214 11.64 53.8452C10.8525 50.833 11.235 47.7083 12.7172 45.042C14.205 42.3702 16.6209 40.4802 19.5206 39.7208L22.1475 39.0317L28.0566 61.6077L25.4297 62.2967C24.5184 62.5358 23.6044 62.6483 22.7016 62.6483ZM21.3431 40.4042L19.8047 40.8092C17.2059 41.4899 15.0375 43.1886 13.6988 45.5905C12.3572 48.0008 12.0113 50.8302 12.7256 53.5611C14.1966 59.1861 19.7681 62.6174 25.1428 61.2083L26.6813 60.8033L21.3431 40.4042Z" fill="#565657"/>
  <path d="M26.681 61.3211C32.4903 60.4477 36.4604 54.8224 35.5484 48.7566C34.6365 42.6908 29.1878 38.4815 23.3785 39.3549C17.5692 40.2283 13.5991 45.8536 14.5111 51.9194C15.4231 57.9852 20.8717 62.1945 26.681 61.3211Z" fill="#EE4D4D"/>
  <path d="M26.681 61.3211C32.4903 60.4477 36.4604 54.8224 35.5484 48.7566C34.6365 42.6908 29.1878 38.4815 23.3785 39.3549C17.5692 40.2283 13.5991 45.8536 14.5111 51.9194C15.4231 57.9852 20.8717 62.1945 26.681 61.3211Z" fill="#EE4D4D"/>
  <path d="M23.3795 39.3544C17.5689 40.2291 13.5977 45.8541 14.5117 51.9179C15.4174 57.9451 20.8033 62.1329 26.5717 61.3285L34.9867 46.5235C33.2374 41.6944 28.4477 38.5894 23.3824 39.3516L23.3795 39.3544Z" fill="#F16E6E"/>
  <path d="M31.7043 41.7988C29.4459 39.8751 26.4674 38.8935 23.3793 39.3576C17.5687 40.2322 13.5974 45.8572 14.5115 51.921C15.1134 55.9204 17.6924 59.1013 21.0393 60.561L31.7043 41.7988Z" fill="#F28585"/>
  <path d="M22.6058 39.519C17.2227 40.7565 13.6396 46.134 14.5114 51.925C14.5789 52.3806 14.6802 52.8222 14.7983 53.2553L22.6058 39.519Z" fill="#F6D3D3"/>
  <path d="M25.2355 61.9793C23.2273 61.9793 21.2361 61.4168 19.4473 60.3171C16.8486 58.7196 14.9839 56.1827 14.1964 53.1733C13.4089 50.1611 13.7914 47.0364 15.2736 44.3702C16.7614 41.6983 19.1773 39.8083 22.077 39.0489C28.0508 37.4852 34.2383 41.2764 35.8667 47.5005C37.4951 53.7246 33.9598 60.0611 27.9861 61.6249C27.0776 61.8639 26.1551 61.9793 25.2355 61.9793ZM24.8051 39.8196C23.9951 39.8196 23.1767 39.9208 22.3611 40.1346C19.7623 40.8152 17.5939 42.5139 16.2552 44.9158C14.9136 47.3261 14.5676 50.1555 15.282 52.8864C15.9964 55.6146 17.6839 57.9124 20.0351 59.358C22.378 60.798 25.1005 61.2143 27.6992 60.5364C33.0739 59.1302 36.2492 53.4096 34.7783 47.7846C33.5295 43.0146 29.3305 39.8196 24.8051 39.8196Z" fill="#565657"/>
  <path d="M25.2355 61.9793C23.2273 61.9793 21.2361 61.4168 19.4473 60.3171C16.8486 58.7196 14.9839 56.1827 14.1964 53.1733C13.4089 50.1611 13.7914 47.0364 15.2736 44.3702C16.7614 41.6983 19.1773 39.8083 22.077 39.0489C28.0508 37.4852 34.2383 41.2764 35.8667 47.5005C37.4951 53.7246 33.9598 60.0611 27.9861 61.6249C27.0776 61.8639 26.1551 61.9793 25.2355 61.9793ZM24.8051 39.8196C23.9951 39.8196 23.1767 39.9208 22.3611 40.1346C19.7623 40.8152 17.5939 42.5139 16.2552 44.9158C14.9136 47.3261 14.5676 50.1555 15.282 52.8864C15.9964 55.6146 17.6839 57.9124 20.0351 59.358C22.378 60.798 25.1005 61.2143 27.6992 60.5364C33.0739 59.1302 36.2492 53.4096 34.7783 47.7846C33.5295 43.0146 29.3305 39.8196 24.8051 39.8196Z" fill="#565657"/>
  <path d="M27.1677 49.7952L28.8327 46.9096C29.263 46.1643 29.0071 45.2109 28.2618 44.7777C27.5165 44.3474 26.563 44.6034 26.1299 45.3487L24.4649 48.2343L21.5793 46.5693C20.834 46.139 19.8805 46.3949 19.4474 47.1402C19.0171 47.8856 19.273 48.839 20.0184 49.2721L22.904 50.9371L21.239 53.8227C20.8087 54.568 21.0646 55.5215 21.8099 55.9546C22.184 56.1712 22.6087 56.2134 22.994 56.1093C23.3793 56.0052 23.7252 55.7549 23.9418 55.3837L25.6068 52.498L28.4924 54.1631C28.8665 54.3796 29.2912 54.4218 29.6765 54.3177C30.0618 54.2137 30.4077 53.9634 30.6243 53.5921C31.0546 52.8468 30.7987 51.8934 30.0534 51.4602L27.1677 49.7952Z" fill="#E2E3E4"/>
  <path d="M22.5862 56.724C22.2178 56.724 21.8549 56.6284 21.5287 56.44C20.5162 55.855 20.1674 54.5556 20.7524 53.5403L22.1362 51.1412L19.7371 49.7575C19.2449 49.4734 18.8962 49.0178 18.7471 48.4694C18.6009 47.9209 18.6768 47.35 18.9581 46.8578C19.5431 45.8453 20.8424 45.4965 21.8578 46.0815L24.2568 47.4653L25.6406 45.0662C25.9246 44.574 26.3831 44.2225 26.9287 44.0762C27.4743 43.93 28.0481 44.0059 28.5403 44.2872C29.0324 44.5684 29.3812 45.0269 29.5303 45.5753C29.6765 46.1237 29.6006 46.6947 29.3193 47.1869L27.9356 49.5859L30.3346 50.9697C30.8268 51.2537 31.1756 51.7094 31.3246 52.2578C31.4709 52.8062 31.3949 53.3772 31.1137 53.8694C30.8296 54.3615 30.3712 54.7103 29.8256 54.8594C29.2771 55.0056 28.7062 54.9297 28.214 54.6484L25.8149 53.2647L24.4312 55.6637C24.1471 56.1559 23.6887 56.5047 23.1431 56.6537C22.9603 56.7015 22.7746 56.7269 22.5918 56.7269L22.5862 56.724ZM20.8031 46.9225C20.4571 46.9225 20.1224 47.1025 19.9368 47.4203C19.8046 47.6509 19.7681 47.9209 19.8384 48.1769C19.9087 48.4356 20.0718 48.6494 20.3024 48.7815L23.6746 50.7278L21.7284 54.1C21.5962 54.3306 21.5596 54.6006 21.6299 54.8565C21.7003 55.1153 21.8634 55.329 22.094 55.4612C22.3246 55.5934 22.5946 55.63 22.8506 55.5625C23.1065 55.4922 23.3231 55.329 23.4553 55.0984L25.4015 51.7262L28.7737 53.6725C29.0043 53.8047 29.2743 53.8412 29.5303 53.7737C29.7862 53.7034 30.0028 53.5403 30.1349 53.3097C30.2671 53.079 30.3037 52.809 30.2334 52.5531C30.1631 52.2944 29.9999 52.0806 29.7693 51.9484L26.3971 50.0022L28.3434 46.63C28.4756 46.3994 28.5121 46.1294 28.4446 45.8734C28.3743 45.6147 28.2112 45.4009 27.9806 45.2687C27.7499 45.1365 27.4799 45.1 27.224 45.1675C26.9681 45.2378 26.7515 45.4009 26.6193 45.6315L24.6731 49.0037L21.3009 47.0575C21.1434 46.9675 20.9718 46.9253 20.8031 46.9253V46.9225Z" fill="#565657"/>
  <path d="M34.05 50.2634H34.0275C33.5381 50.2606 33.0572 50.3872 32.6325 50.6347L32.6128 50.3844C32.5875 50.0216 32.489 49.6672 32.3231 49.3438L32.2612 49.22L32.4019 49.2144C32.8069 49.2003 33.2034 49.0934 33.5634 48.9078L33.6759 48.8488V48.8544C33.6703 49.31 33.78 49.7572 33.9909 50.1594L34.0444 50.2634H34.05Z" fill="white"/>
  <path d="M21.1349 42.7133C21.4502 42.7133 21.7058 42.4577 21.7058 42.1423C21.7058 41.827 21.4502 41.5714 21.1349 41.5714C20.8196 41.5714 20.564 41.827 20.564 42.1423C20.564 42.4577 20.8196 42.7133 21.1349 42.7133Z" fill="white"/>
</svg>
